<svg xmlns="http://www.w3.org/2000/svg" width="65" height="65" viewBox="0 0 65 65">
  <g fill="none" fill-rule="evenodd">
    <rect width="65" height="65" fill="#281964" fill-rule="nonzero"/>
    <path stroke="#FFF" stroke-linecap="round" stroke-linejoin="round" stroke-width="2" d="M53,54.9555556 C53,55.5331333 52.5284211,56 51.9473684,56 L14.0526316,56 C13.4715789,56 13,55.5331333 13,54.9555556 L13,10.0444444 C13,9.46686667 13.4715789,9 14.0526316,9 L51.9473684,9 C52.5284211,9 53,9.46686667 53,10.0444444 L53,54.9555556 Z"/>
    <path stroke="#FFF" stroke-linecap="round" stroke-linejoin="round" stroke-width="2" d="M47,37.9994868 C47,45.1796866 40.9558284,51 33.4994671,51 C26.0441716,51 20,45.1796866 20,37.9994868 C20,30.8203134 26.0441716,25 33.4994671,25 C40.9558284,25 47,30.8203134 47,37.9994868 Z"/>
    <path stroke="#FFF" stroke-linecap="round" stroke-linejoin="round" stroke-width="2" d="M44 37.9994976C44 42.9705242 39.7466644 47 34.4994697 47 29.2533356 47 25 42.9705242 25 37.9994976 25 33.0294758 29.2533356 29 34.4994697 29 39.7466644 29 44 33.0294758 44 37.9994976zM13 20.5L53 20.5M49 14.0004957C49 15.1038414 48.1046108 16 47 16 45.8953892 16 45 15.1038414 45 14.0004957 45 12.8961586 45.8953892 12 47 12 48.1046108 12 49 12.8961586 49 14.0004957zM41 14.0004957C41 15.1038414 40.1046108 16 39 16 37.8953892 16 37 15.1038414 37 14.0004957 37 12.8961586 37.8953892 12 39 12 40.1046108 12 41 12.8961586 41 14.0004957zM18 12.5L28 12.5M18 16.5L28 16.5"/>
    <path stroke="#FFF" stroke-linecap="round" stroke-linejoin="round" stroke-width="2" d="M44,39 C44,40.104 43.329,41 42.5,41 L39.5,41 C38.671,41 38,40.104 38,39 C38,37.896 38.671,37 39.5,37 L42.5,37 C43.329,37 44,37.896 44,39 Z"/>
  </g>
</svg>
