<svg xmlns="http://www.w3.org/2000/svg" xmlns:xlink="http://www.w3.org/1999/xlink" width="65" height="65" viewBox="0 0 65 65">
  <defs>
    <rect id="ico_money-a" width="65" height="65"/>
  </defs>
  <g fill="none" fill-rule="evenodd">
    <mask id="ico_money-b" fill="#fff">
      <use xlink:href="#ico_money-a"/>
    </mask>
    <use fill="#281964" fill-rule="nonzero" xlink:href="#ico_money-a"/>
    <path fill="#FFF" d="M32.8945312,57.7183793 C19.1676402,57.7183793 8,46.3419145 8,32.3600361 C8,18.3764648 19.1676402,7 32.8945312,7 C46.6214223,7 57.7890625,18.3764648 57.7890625,32.3600361 C57.7890625,34.682731 57.4799582,36.9834179 56.8717206,39.2011513 C56.6257666,40.1000952 55.7084248,40.6316741 54.8243199,40.3743493 C53.9402151,40.1237962 53.4250412,39.1893008 53.6709952,38.288664 C54.197802,36.3688856 54.4653601,34.3729255 54.4653601,32.3600361 C54.4653601,20.2420696 44.7884004,10.3858526 32.8945312,10.3858526 C21.0006621,10.3858526 11.3237024,20.2420696 11.3237024,32.3600361 C11.3237024,44.4746168 21.0006621,54.3325267 32.8945312,54.3325267 C36.5206906,54.3325267 40.1053037,53.3997243 43.2594973,51.6356951 C44.0654951,51.1853767 45.0742388,51.4833317 45.5162913,52.304401 C45.9583437,53.1237773 45.664196,54.1530765 44.85986,54.6033949 C41.2154203,56.6416782 37.0790726,57.7183793 32.8945312,57.7183793" mask="url(#ico_money-b)"/>
    <path fill="#FFF" d="M32.8604026,45.5608666 C32.0187173,45.5263597 31.1704564,45.4366418 30.3243873,45.287112 C29.4761264,45.1375822 28.695814,44.9466441 27.9834502,44.7142977 C27.2732782,44.4819514 26.6683169,44.2219995 26.1729501,43.9344421 C25.6775832,43.6468848 25.3575674,43.3478251 25.208519,43.0395636 C25.0397436,42.7059971 24.9564518,42.3816324 24.9564518,42.0595681 C24.9564518,41.7950153 25.0024815,41.5373639 25.090157,41.2889144 C25.1800245,41.0404648 25.3049621,40.8173203 25.4627781,40.6240817 C25.6205941,40.4308432 25.8156722,40.274412 26.0480124,40.1501872 C26.2803526,40.0305633 26.5368036,39.9684509 26.8217491,39.9684509 C27.1373811,39.9684509 27.4595888,40.0328638 27.7861802,40.159389 C28.1127716,40.2882147 28.4766251,40.4124395 28.8777408,40.5320634 C29.5396912,40.7437056 30.2893171,40.9208409 31.1222348,41.0634694 C31.9529607,41.2083983 32.8450594,41.2797125 33.7941472,41.2797125 C34.2566357,41.2797125 34.7256999,41.2291024 35.1991479,41.1301827 C35.6747878,41.031263 36.1022061,40.8725313 36.4814028,40.6585886 C36.8605996,40.4423455 37.1696559,40.1616895 37.4063799,39.8189211 C37.6431039,39.4761527 37.7614659,39.0620701 37.7614659,38.5743728 C37.7614659,38.144187 37.6715984,37.7715126 37.4918635,37.4563498 C37.3143205,37.1388864 37.0732128,36.8674323 36.772924,36.6350859 C36.4726353,36.4027396 36.1175493,36.1979987 35.7054742,36.0208634 C35.295591,35.843728 34.8637889,35.678095 34.410068,35.5216638 L33.4763234,35.2410078 C33.265902,35.1742945 33.0510969,35.1075812 32.8297162,35.0408679 C32.6083354,34.9741546 32.380379,34.9028403 32.1502307,34.8246247 L30.8066029,34.4105421 C30.4361737,34.2886178 30.0876634,34.1666935 29.7610719,34.0470696 C29.4366724,33.9228448 29.1714539,33.8239251 28.971992,33.74801 C27.5604156,33.2166039 26.4951577,32.4574525 25.7784101,31.4728561 C25.0616625,30.4905601 24.7021927,29.2345095 24.7021927,27.7070048 C24.7021927,26.7684175 24.8841195,25.8896422 25.247973,25.0775802 C25.6118265,24.2655182 26.1422636,23.547775 26.8370924,22.9289516 C27.5319211,22.3101281 28.3867577,21.8063276 29.3972184,21.4198505 C30.409871,21.0310729 31.5649964,20.7872243 32.8604026,20.6883046 L32.8604026,19.4276531 C32.8604026,18.9974672 32.9612295,18.6731025 33.1606914,18.4568594 C33.3623451,18.2429167 33.6144123,18.1347951 33.9190849,18.1347951 C34.193071,18.1347951 34.4385625,18.2314144 34.6555595,18.424653 C34.8703646,18.6178915 34.979959,18.8916461 34.979959,19.2459168 L34.979959,20.6722014 C35.8019173,20.7159101 36.6392188,20.7918252 37.4918635,20.8953459 C38.3467001,21.001167 39.1226288,21.1760019 39.8240332,21.4198505 C40.5254376,21.6613987 41.0975205,21.9834629 41.540282,22.3814423 C41.9830436,22.7794217 42.2044243,23.2947245 42.2044243,23.9250503 C42.2044243,24.4334517 42.033457,24.8613371 41.6893305,25.2110068 C41.3473958,25.5583761 40.8980586,25.733211 40.339127,25.733211 L40.1725435,25.733211 C40.1155544,25.733211 40.0585653,25.7263096 40.0059599,25.7171078 C39.7100549,25.6618968 39.4273013,25.6020849 39.1533152,25.5422729 C38.8793291,25.4801605 38.5790404,25.4180481 38.250257,25.3513348 C37.9258575,25.2846215 37.5488526,25.2179082 37.1214343,25.1511949 C36.694016,25.0867821 36.1811141,25.0200687 35.5805366,24.9533554 C35.3262775,24.9303508 35.0764021,24.9073463 34.8287187,24.8866421 C34.5810353,24.8636375 34.3355437,24.8544357 34.094436,24.8544357 C33.6297556,24.8544357 33.167267,24.9004449 32.7025866,24.9947637 C32.2379062,25.0890825 31.8258311,25.2294105 31.4619776,25.4180481 C31.0981241,25.6066858 30.804411,25.8459335 30.5764545,26.1403922 C30.3484981,26.4325505 30.2367118,26.7845208 30.2367118,27.1940024 C30.2367118,27.6793993 30.3550738,28.0957823 30.5917978,28.4385507 C30.8285218,28.7813191 31.1419618,29.0757779 31.5343099,29.3242274 C31.9222742,29.5749774 32.3628439,29.7843192 32.853827,29.9545532 C33.3426181,30.1270876 33.8357931,30.2835188 34.33116,30.4284477 L35.926855,30.8931404 C37.0140318,31.2474111 38.0113412,31.6108836 38.9231669,31.978957 C39.8349926,32.3493309 40.6240726,32.7979204 41.286023,33.3247255 C41.9501652,33.8492301 42.467451,34.4864573 42.8356883,35.231806 C43.2061175,35.9771547 43.3902361,36.8927373 43.3902361,37.9785539 C43.3902361,39.0850747 43.1907743,40.0834739 42.7962343,40.9737515 C42.4016943,41.8640291 41.8383789,42.6323824 41.1062881,43.2788113 C40.3720053,43.9275408 39.4864823,44.4428436 38.4497189,44.8316211 C37.4107637,45.2180982 36.2534464,45.4550455 34.979959,45.5447634 L34.979959,46.9388415 C34.979959,47.1136764 34.9624239,47.2908117 34.9317375,47.4679471 C34.901051,47.6450824 34.8440619,47.8038141 34.7651539,47.9418416 C34.6862459,48.0798691 34.5788434,48.1948921 34.4407544,48.2823095 C34.3048573,48.369727 34.1251224,48.4134357 33.9037417,48.4134357 C33.6297556,48.4134357 33.3886478,48.3237178 33.1782265,48.1419815 C32.9656133,47.9579448 32.8604026,47.6795893 32.8604026,47.302314 L32.8604026,45.5608666 Z" mask="url(#ico_money-b)"/>
  </g>
</svg>
